<svg id="Calque_1" data-name="Calque 1" xmlns="http://www.w3.org/2000/svg" viewBox="0 0 202.66 32.04"><defs><style>.cls-1{fill:#fff;}.cls-2{fill:#ff7d3e;}</style></defs><title>logo</title><path class="cls-1" d="M84,96H72.59L65,89.69H54.18V96H46.34V83.18H68.11a7.86,7.86,0,0,0,3.29-.6A2.48,2.48,0,0,0,73,80.28q0-3-4.93-3H46.34l5.11-6.51H67.37A18.27,18.27,0,0,1,77,73a8.11,8.11,0,0,1,4.13,7.28,7.68,7.68,0,0,1-1.66,4.82,10.53,10.53,0,0,1-4.6,3.3Z" transform="translate(-46.33 -70.72)"/><path class="cls-1" d="M97.05,96l4.73-6.51h10.53l-6.54-9.1L94.39,96H84.7l16.17-22.44a7,7,0,0,1,2.13-2,5.67,5.67,0,0,1,2.91-.91,5.56,5.56,0,0,1,2.9.91,7.19,7.19,0,0,1,2.1,2L126.7,96Z" transform="translate(-46.33 -70.72)"/><path class="cls-1" d="M159.81,89.52l-5,6.51H142.1a16.3,16.3,0,0,1-10.91-3.66,11.54,11.54,0,0,1-4.32-9.19,11,11,0,0,1,4.27-9,17,17,0,0,1,11-3.43h17.71l-5,6.51H142.12A8,8,0,0,0,136.81,79a5.51,5.51,0,0,0-2.1,4.44,5.32,5.32,0,0,0,2.1,4.35,8.18,8.18,0,0,0,5.31,1.69Z" transform="translate(-46.33 -70.72)"/><path class="cls-1" d="M188.61,89.52l-5,6.51H161.21V70.79h27.4l-5,6.51H169.05V80h18.34l-5,6.51h-13.3v3Z" transform="translate(-46.33 -70.72)"/><path class="cls-2" d="M238.82,81.44H233a.47.47,0,0,0-.53.35q-1.58,4.25-3.17,8.48a9.57,9.57,0,0,1-.63,1.38.74.74,0,0,1-.71.42c-3.65,0-7.29,0-10.94,0-.76,0-.87-.18-.61-.89L219.88,82c.2-.53.2-.53-.35-.53-3.77,0-7.55,0-11.32,0-.44,0-.53-.07-.37-.5q1.84-4.83,3.64-9.66a.63.63,0,0,1,.7-.49c3.79,0,7.58,0,11.37,0,.58,0,.6,0,.4.54q-1.8,4.78-3.62,9.56c-.15.4-.15.52.33.51,3.84,0,7.68,0,11.52,0a.49.49,0,0,0,.57-.37c1.2-3.29,2.42-6.58,3.63-9.87a.46.46,0,0,1,.49-.35l11.77,0c.32,0,.43,0,.3.41q-1.87,4.94-3.71,9.89a.44.44,0,0,1-.16.24.56.56,0,0,1-.36.07C244.41,81.38,242.12,81.39,238.82,81.44Z" transform="translate(-46.33 -70.72)"/><path class="cls-2" d="M199.72,102.71a8.6,8.6,0,0,1,.51-1.73l3.15-8.33c.22-.6.22-.6-.4-.6H191.7c-.45,0-.52-.09-.36-.51q1.86-4.85,3.67-9.71a.57.57,0,0,1,.64-.42c3.57,0,7.13,0,10.69,0l.64,0c.56,0,.65.12.46.64-.38,1.06-.77,2.12-1.16,3.17-.79,2.11-1.57,4.22-2.37,6.33-.15.39-.1.52.36.52,3.68,0,7.35,0,11,0,.77,0,.83.08.56.81-1.08,2.9-2.26,5.77-3.27,8.7-.38,1.11-.37,1.15-1.54,1.16-3.72,0-7.45,0-11.17,0A.53.53,0,0,1,199.72,102.71Z" transform="translate(-46.33 -70.72)"/><path class="cls-2" d="M241.1,92.08c-1.2,2.87-2.21,5.76-3.3,8.62-.22.58-.45,1.16-.65,1.74a.41.41,0,0,1-.46.32c-3.9-.09-7.81.07-11.71-.1-.38,0-.47-.06-.31-.45,1.09-2.65,2.08-5.35,3.08-8a9.18,9.18,0,0,1,.85-1.86.61.61,0,0,1,.6-.33c3.9.11,7.81,0,11.71.07Z" transform="translate(-46.33 -70.72)"/><rect class="cls-1" y="28.7" width="144" height="3.33"/><rect class="cls-1" y="23.71" width="7.84" height="5.81"/></svg>